<svg xmlns="http://www.w3.org/2000/svg" viewBox="0 0 400 260" preserveAspectRatio="xMidYMid slice">
  <rect width="400" height="260" fill="#f3e5f5"/>
  <!-- Wheel -->
  <g transform="translate(200, 130)">
    <circle cx="0" cy="0" r="95" fill="none" stroke="#7b1fa2" stroke-width="4"/>
    <!-- Segments (8 slices) -->
    <path d="M 0 0 L 0 -95 L 67 -67 Z" fill="#ce93d8"/>
    <path d="M 0 0 L 67 -67 L 95 0 Z" fill="#ba68c8"/>
    <path d="M 0 0 L 95 0 L 67 67 Z" fill="#ab47bc"/>
    <path d="M 0 0 L 67 67 L 0 95 Z" fill="#9c27b0"/>
    <path d="M 0 0 L 0 95 L -67 67 Z" fill="#ce93d8"/>
    <path d="M 0 0 L -67 67 L -95 0 Z" fill="#ba68c8"/>
    <path d="M 0 0 L -95 0 L -67 -67 Z" fill="#ab47bc"/>
    <path d="M 0 0 L -67 -67 L 0 -95 Z" fill="#9c27b0"/>
    <circle cx="0" cy="0" r="18" fill="#7b1fa2"/>
    <!-- Pointer -->
    <path d="M 0 -115 L -12 -95 L 0 -90 L 12 -95 Z" fill="#d32f2f"/>
  </g>
</svg>
