<svg xmlns="http://www.w3.org/2000/svg" viewBox="0 0 400 260" preserveAspectRatio="xMidYMid slice">
  <rect width="400" height="260" fill="#e3f2fd"/>
  
  <!-- Score board background -->
  <rect x="50" y="40" width="300" height="180" rx="15" fill="white" stroke="#1976d2" stroke-width="3"/>
  
  <!-- Number tiles (1-13 representation) -->
  <g transform="translate(70, 60)">
    <!-- Row 1: Numbers 1-7 -->
    <rect x="0" y="0" width="30" height="40" rx="5" fill="#1976d2" opacity="0.8"/>
    <text x="15" y="28" font-family="Arial, sans-serif" font-size="18" font-weight="bold" text-anchor="middle" fill="white">1</text>
    
    <rect x="40" y="0" width="30" height="40" rx="5" fill="#1976d2" opacity="0.6"/>
    <text x="55" y="28" font-family="Arial, sans-serif" font-size="18" font-weight="bold" text-anchor="middle" fill="white">2</text>
    
    <rect x="80" y="0" width="30" height="40" rx="5" fill="#1976d2" opacity="0.4"/>
    <text x="95" y="28" font-family="Arial, sans-serif" font-size="18" font-weight="bold" text-anchor="middle" fill="white">3</text>
    
    <rect x="120" y="0" width="30" height="40" rx="5" fill="#e0e0e0" stroke="#1976d2" stroke-width="2"/>
    <text x="135" y="28" font-family="Arial, sans-serif" font-size="18" font-weight="bold" text-anchor="middle" fill="#666">4</text>
    
    <rect x="160" y="0" width="30" height="40" rx="5" fill="#e0e0e0" stroke="#1976d2" stroke-width="2"/>
    <text x="175" y="28" font-family="Arial, sans-serif" font-size="18" font-weight="bold" text-anchor="middle" fill="#666">5</text>
    
    <rect x="200" y="0" width="30" height="40" rx="5" fill="#e0e0e0" stroke="#1976d2" stroke-width="2"/>
    <text x="215" y="28" font-family="Arial, sans-serif" font-size="18" font-weight="bold" text-anchor="middle" fill="#666">6</text>
    
    <rect x="240" y="0" width="30" height="40" rx="5" fill="#e0e0e0" stroke="#1976d2" stroke-width="2"/>
    <text x="255" y="28" font-family="Arial, sans-serif" font-size="18" font-weight="bold" text-anchor="middle" fill="#666">7</text>
  </g>
  
  <!-- Row 2: Numbers 8-13 and Joker -->
  <g transform="translate(70, 110)">
    <rect x="0" y="0" width="30" height="40" rx="5" fill="#e0e0e0" stroke="#1976d2" stroke-width="2"/>
    <text x="15" y="28" font-family="Arial, sans-serif" font-size="18" font-weight="bold" text-anchor="middle" fill="#666">8</text>
    
    <rect x="40" y="0" width="30" height="40" rx="5" fill="#e0e0e0" stroke="#1976d2" stroke-width="2"/>
    <text x="55" y="28" font-family="Arial, sans-serif" font-size="18" font-weight="bold" text-anchor="middle" fill="#666">9</text>
    
    <rect x="80" y="0" width="30" height="40" rx="5" fill="#e0e0e0" stroke="#1976d2" stroke-width="2"/>
    <text x="95" y="28" font-family="Arial, sans-serif" font-size="18" font-weight="bold" text-anchor="middle" fill="#666">10</text>
    
    <rect x="120" y="0" width="30" height="40" rx="5" fill="#e0e0e0" stroke="#1976d2" stroke-width="2"/>
    <text x="135" y="28" font-family="Arial, sans-serif" font-size="18" font-weight="bold" text-anchor="middle" fill="#666">11</text>
    
    <rect x="160" y="0" width="30" height="40" rx="5" fill="#e0e0e0" stroke="#1976d2" stroke-width="2"/>
    <text x="175" y="28" font-family="Arial, sans-serif" font-size="18" font-weight="bold" text-anchor="middle" fill="#666">12</text>
    
    <rect x="200" y="0" width="30" height="40" rx="5" fill="#e0e0e0" stroke="#1976d2" stroke-width="2"/>
    <text x="215" y="28" font-family="Arial, sans-serif" font-size="18" font-weight="bold" text-anchor="middle" fill="#666">13</text>
    
    <!-- Joker tile (orange) -->
    <rect x="240" y="0" width="30" height="40" rx="5" fill="#ff9800" opacity="0.8"/>
    <text x="255" y="28" font-family="Arial, sans-serif" font-size="18" font-weight="bold" text-anchor="middle" fill="white">J</text>
  </g>
  
  <!-- Score display -->
  <rect x="70" y="160" width="260" height="40" rx="8" fill="#f5f5f5" stroke="#1976d2" stroke-width="2"/>
  <text x="200" y="185" font-family="Arial, sans-serif" font-size="24" font-weight="bold" text-anchor="middle" fill="#1976d2">Score: 125</text>
</svg>

