<svg xmlns="http://www.w3.org/2000/svg" viewBox="0 0 400 260" preserveAspectRatio="xMidYMid slice">
  <rect width="400" height="260" fill="#e0f7fa"/>
  <g transform="translate(125, 60) scale(1.5)" stroke="black" stroke-width="2" stroke-linejoin="round">
    <polygon points="50,0 100,25 50,50 0,25" fill="#fefe33" />
    <line x1="33" y1="8" x2="83" y2="33" />
    <line x1="16" y1="16" x2="66" y2="41" />
    <line x1="16" y1="33" x2="66" y2="8" />
    <line x1="33" y1="41" x2="83" y2="16" />
    <polygon points="100,25 100,85 50,110 50,50" fill="#ee0000" />
    <line x1="100" y1="45" x2="50" y2="70" />
    <line x1="100" y1="65" x2="50" y2="90" />
    <line x1="83" y1="33" x2="83" y2="93" />
    <line x1="66" y1="41" x2="66" y2="101" />
    <polygon points="0,25 50,50 50,110 0,85" fill="#0000ee" />
    <line x1="0" y1="45" x2="50" y2="70" />
    <line x1="0" y1="65" x2="50" y2="90" />
    <line x1="16" y1="33" x2="16" y2="93" />
    <line x1="33" y1="41" x2="33" y2="101" />
  </g>
</svg>