<svg xmlns="http://www.w3.org/2000/svg" viewBox="0 0 400 260" preserveAspectRatio="xMidYMid slice">
  <rect width="400" height="260" fill="#f5f5dc"/>
  <defs>
    <filter id="kawaii-shadow">
      <feGaussianBlur in="SourceAlpha" stdDeviation="3"/>
      <feOffset dx="2" dy="4" result="offsetblur"/>
      <feComponentTransfer>
        <feFuncA type="linear" slope="0.2"/>
      </feComponentTransfer>
      <feMerge>
        <feMergeNode/>
        <feMergeNode in="SourceGraphic"/>
      </feMerge>
    </filter>
  </defs>
  <g transform="translate(125, 60) scale(1.5)" stroke="#654321" stroke-width="4" stroke-linejoin="round" filter="url(#kawaii-shadow)">
    <polygon points="50,0 100,25 50,50 0,25" fill="#ffe4b5" />
    <line x1="33" y1="8" x2="83" y2="33" stroke-width="3"/>
    <line x1="16" y1="16" x2="66" y2="41" stroke-width="3"/>
    <line x1="16" y1="33" x2="66" y2="8" stroke-width="3"/>
    <line x1="33" y1="41" x2="83" y2="16" stroke-width="3"/>
    <polygon points="100,25 100,85 50,110 50,50" fill="#ff6b6b" />
    <line x1="100" y1="45" x2="50" y2="70" stroke-width="3"/>
    <line x1="100" y1="65" x2="50" y2="90" stroke-width="3"/>
    <line x1="83" y1="33" x2="83" y2="93" stroke-width="3"/>
    <line x1="66" y1="41" x2="66" y2="101" stroke-width="3"/>
    <polygon points="0,25 50,50 50,110 0,85" fill="#b0e0e6" />
    <line x1="0" y1="45" x2="50" y2="70" stroke-width="3"/>
    <line x1="0" y1="65" x2="50" y2="90" stroke-width="3"/>
    <line x1="16" y1="33" x2="16" y2="93" stroke-width="3"/>
    <line x1="33" y1="41" x2="33" y2="101" stroke-width="3"/>
  </g>
</svg>


